<svg width="12" height="12" viewBox="0 0 12 12" fill="none" xmlns="http://www.w3.org/2000/svg">
<path d="M4 0.5C2.067 0.5 0.5 2.067 0.5 4H1.5C1.5 2.61929 2.61929 1.5 4 1.5V0.5ZM8 0.5H4V1.5H8V0.5ZM11.5 4C11.5 2.067 9.933 0.5 8 0.5V1.5C9.38071 1.5 10.5 2.61929 10.5 4H11.5ZM11.5 8V4H10.5V8H11.5ZM8 11.5C9.933 11.5 11.5 9.933 11.5 8H10.5C10.5 9.38071 9.38071 10.5 8 10.5V11.5ZM4 11.5H8V10.5H4V11.5ZM0.5 8C0.5 9.933 2.067 11.5 4 11.5V10.5C2.61929 10.5 1.5 9.38071 1.5 8H0.5ZM0.5 4V8H1.5V4H0.5ZM4.09533 5.78436C5.02895 5.78436 5.7858 5.02751 5.7858 4.09389H4.7858C4.7858 4.47522 4.47667 4.78436 4.09533 4.78436V5.78436ZM2.40485 4.09389C2.40485 5.02751 3.1617 5.78436 4.09533 5.78436V4.78436C3.71399 4.78436 3.40485 4.47522 3.40485 4.09389H2.40485ZM4.09533 2.40341C3.1617 2.40341 2.40485 3.16026 2.40485 4.09389H3.40485C3.40485 3.71255 3.71399 3.40341 4.09533 3.40341V2.40341ZM5.7858 4.09389C5.7858 3.16026 5.02895 2.40341 4.09533 2.40341V3.40341C4.47667 3.40341 4.7858 3.71255 4.7858 4.09389H5.7858ZM4.7858 7.90425C4.7858 8.28559 4.47667 8.59473 4.09533 8.59473V9.59473C5.02895 9.59473 5.7858 8.83788 5.7858 7.90425H4.7858ZM4.09533 7.21378C4.47667 7.21378 4.7858 7.52292 4.7858 7.90425H5.7858C5.7858 6.97063 5.02895 6.21378 4.09533 6.21378V7.21378ZM3.40485 7.90425C3.40485 7.52291 3.71399 7.21378 4.09533 7.21378V6.21378C3.1617 6.21378 2.40485 6.97063 2.40485 7.90425H3.40485ZM4.09533 8.59473C3.71399 8.59473 3.40485 8.28559 3.40485 7.90425H2.40485C2.40485 8.83788 3.1617 9.59473 4.09533 9.59473V8.59473ZM7.90481 5.78436C8.83843 5.78436 9.59529 5.02751 9.59529 4.09389H8.59529C8.59529 4.47522 8.28615 4.78436 7.90481 4.78436V5.78436ZM6.21433 4.09389C6.21433 5.02751 6.97118 5.78436 7.90481 5.78436V4.78436C7.52347 4.78436 7.21433 4.47522 7.21433 4.09389H6.21433ZM7.90481 2.40341C6.97118 2.40341 6.21433 3.16026 6.21433 4.09389H7.21433C7.21433 3.71255 7.52347 3.40341 7.90481 3.40341V2.40341ZM9.59529 4.09389C9.59529 3.16026 8.83843 2.40341 7.90481 2.40341V3.40341C8.28615 3.40341 8.59529 3.71255 8.59529 4.09389H9.59529ZM8.59529 7.90425C8.59529 8.28559 8.28615 8.59473 7.90481 8.59473V9.59473C8.83843 9.59473 9.59529 8.83788 9.59529 7.90425H8.59529ZM7.90481 7.21378C8.28615 7.21378 8.59529 7.52292 8.59529 7.90425H9.59529C9.59529 6.97063 8.83843 6.21378 7.90481 6.21378V7.21378ZM7.21433 7.90425C7.21433 7.52291 7.52347 7.21378 7.90481 7.21378V6.21378C6.97118 6.21378 6.21433 6.97063 6.21433 7.90425H7.21433ZM7.90481 8.59473C7.52347 8.59473 7.21433 8.28559 7.21433 7.90425H6.21433C6.21433 8.83788 6.97119 9.59473 7.90481 9.59473V8.59473Z" fill="#92929D"/>
</svg>
