<svg width="64" height="64" viewBox="0 0 64 64" fill="none" xmlns="http://www.w3.org/2000/svg">
<path fill-rule="evenodd" clip-rule="evenodd" d="M32 17.7143C24.1102 17.7143 17.7143 24.1102 17.7143 32C17.7143 39.8898 24.1102 46.2857 32 46.2857C33.578 46.2857 34.8571 47.5649 34.8571 49.1429C34.8571 50.7208 33.578 52 32 52C20.9543 52 12 43.0457 12 32C12 20.9543 20.9543 12 32 12C43.0457 12 52 20.9543 52 32C52 33.578 50.7208 34.8571 49.1429 34.8571C47.5649 34.8571 46.2857 33.578 46.2857 32C46.2857 24.1102 39.8898 17.7143 32 17.7143Z" fill="#191C1F"/>
<path d="M49.1425 43.7854C49.1425 46.744 46.744 49.1425 43.7854 49.1425C40.8267 49.1425 38.4282 46.744 38.4282 43.7854C38.4282 40.8267 40.8267 38.4282 43.7854 38.4282C46.744 38.4282 49.1425 40.8267 49.1425 43.7854Z" fill="#FF8A00"/>
</svg>
