<svg width="180" height="180" viewBox="0 0 180 180" fill="none" xmlns="http://www.w3.org/2000/svg">
<path fill-rule="evenodd" clip-rule="evenodd" d="M90 25.7143C54.496 25.7143 25.7143 54.496 25.7143 90C25.7143 125.504 54.496 154.286 90 154.286C97.1008 154.286 102.857 160.042 102.857 167.143C102.857 174.244 97.1008 180 90 180C40.2944 180 0 139.706 0 90C0 40.2944 40.2944 0 90 0C139.706 0 180 40.2944 180 90C180 97.1008 174.244 102.857 167.143 102.857C160.042 102.857 154.286 97.1008 154.286 90C154.286 54.496 125.504 25.7143 90 25.7143Z" fill="#191C1F"/>
<path d="M167.141 143.034C167.141 156.348 156.348 167.141 143.034 167.141C129.72 167.141 118.927 156.348 118.927 143.034C118.927 129.72 129.72 118.927 143.034 118.927C156.348 118.927 167.141 129.72 167.141 143.034Z" fill="#FF8A00"/>
</svg>
