<svg width="167" height="33" viewBox="0 0 167 33" fill="none" xmlns="http://www.w3.org/2000/svg">
<path d="M12.8121 33C10.4885 33 8.34502 32.4437 6.38149 31.331C4.41795 30.1856 2.86349 28.6639 1.71809 26.7658C0.572697 24.835 0 22.7405 0 20.4825C0 18.2244 0.572697 16.1463 1.71809 14.2482C2.86349 12.3174 4.41795 10.7957 6.38149 9.68303C8.34502 8.53764 10.4885 7.96494 12.8121 7.96494C15.2665 7.96494 17.5082 8.52127 19.5372 9.63394C21.5989 10.7466 23.0552 12.2847 23.906 14.2482L18.0645 17.2426C17.5409 16.359 16.8209 15.6554 15.9046 15.1318C14.9883 14.6082 13.9575 14.3464 12.8121 14.3464C11.0449 14.3464 9.57223 14.9355 8.39411 16.1136C7.24871 17.2917 6.67602 18.748 6.67602 20.4825C6.67602 22.2169 7.24871 23.6732 8.39411 24.8513C9.57223 26.0295 11.0449 26.6185 12.8121 26.6185C13.9575 26.6185 14.9883 26.3567 15.9046 25.8331C16.8209 25.3095 17.5409 24.6059 18.0645 23.7223L23.906 26.7167C23.0552 28.6802 21.5989 30.2183 19.5372 31.331C17.5082 32.4437 15.2665 33 12.8121 33Z" fill="#212C34"/>
<path d="M49.5263 20.2861C49.5263 20.9079 49.4936 21.4642 49.4281 21.9551C46.2538 21.9878 43.2103 22.1842 40.2977 22.5442C37.3851 22.8714 34.8653 23.3296 32.7381 23.9187C33.2944 24.9004 34.0471 25.6695 34.9962 26.2258C35.9779 26.7494 37.107 27.0112 38.3833 27.0112C39.5614 27.0112 40.6904 26.7821 41.7704 26.324C42.883 25.8658 43.8648 25.2113 44.7157 24.3604L48.2009 28.9257C46.9901 30.2347 45.5338 31.2492 43.8321 31.9691C42.1303 32.6564 40.3141 33 38.3833 33C35.9616 33 33.769 32.46 31.8054 31.3801C29.8419 30.2674 28.3038 28.762 27.1911 26.864C26.0784 24.9331 25.5221 22.7896 25.5221 20.4334C25.5221 18.1099 26.0621 15.9991 27.142 14.101C28.222 12.2029 29.711 10.7139 31.6091 9.63394C33.5071 8.52127 35.6179 7.96494 37.9415 7.96494C40.1995 7.96494 42.1958 8.48855 43.9302 9.53576C45.6974 10.5503 47.0719 11.9902 48.0537 13.8555C49.0354 15.7209 49.5263 17.8644 49.5263 20.2861ZM37.7451 13.9537C36.2397 13.9537 34.9798 14.4282 33.9653 15.3773C32.9508 16.2936 32.3127 17.5372 32.0509 19.108C35.3889 18.159 38.956 17.6026 42.7521 17.439C42.4249 16.359 41.8195 15.5082 40.9359 14.8864C40.0523 14.2646 38.9887 13.9537 37.7451 13.9537Z" fill="#212C34"/>
<path d="M60.1095 11.3029C61.4185 9.14306 63.5947 8.1122 66.6382 8.21038V15.3773C64.6092 15.3773 63.0384 15.9173 61.9257 16.9972C60.8458 18.0444 60.3058 19.5498 60.3058 21.5133V32.3619H53.6298V8.60309H60.1095V11.3029Z" fill="#212C34"/>
<path d="M92.517 20.2861C92.517 20.9079 92.4843 21.4642 92.4188 21.9551C89.2444 21.9878 86.201 22.1842 83.2884 22.5442C80.3758 22.8714 77.8559 23.3296 75.7288 23.9187C76.2851 24.9004 77.0378 25.6695 77.9868 26.2258C78.9686 26.7494 80.0976 27.0112 81.3739 27.0112C82.552 27.0112 83.6811 26.7821 84.761 26.324C85.8737 25.8658 86.8555 25.2113 87.7063 24.3604L91.1916 28.9257C89.9808 30.2347 88.5245 31.2492 86.8227 31.9691C85.121 32.6564 83.3047 33 81.3739 33C78.9522 33 76.7596 32.46 74.7961 31.3801C72.8326 30.2674 71.2945 28.762 70.1818 26.864C69.0691 24.9331 68.5128 22.7896 68.5128 20.4334C68.5128 18.1099 69.0527 15.9991 70.1327 14.101C71.2126 12.2029 72.7016 10.7139 74.5997 9.63394C76.4978 8.52127 78.6086 7.96494 80.9321 7.96494C83.1902 7.96494 85.1865 8.48855 86.9209 9.53576C88.6881 10.5503 90.0626 11.9902 91.0443 13.8555C92.0261 15.7209 92.517 17.8644 92.517 20.2861ZM80.7358 13.9537C79.2304 13.9537 77.9705 14.4282 76.956 15.3773C75.9415 16.2936 75.3033 17.5372 75.0415 19.108C78.3795 18.159 81.9466 17.6026 85.7428 17.439C85.4155 16.359 84.8101 15.5082 83.9265 14.8864C83.0429 14.2646 81.9793 13.9537 80.7358 13.9537Z" fill="#212C34"/>
<path d="M110.12 8.1122C112.378 8.1122 114.44 8.66854 116.305 9.78121C118.203 10.8612 119.692 12.3502 120.772 14.2482C121.885 16.1463 122.441 18.2244 122.441 20.4825C122.441 22.7405 121.885 24.8186 120.772 26.7167C119.692 28.6148 118.203 30.1202 116.305 31.2328C114.44 32.3128 112.378 32.8527 110.12 32.8527C107.207 32.8527 104.867 31.9201 103.1 30.0547V32.3619H96.6205V0H103.296V10.7139C105.031 8.97943 107.305 8.1122 110.12 8.1122ZM109.433 26.6185C111.2 26.6185 112.689 26.0295 113.9 24.8513C115.143 23.6405 115.765 22.1842 115.765 20.4825C115.765 18.7807 115.143 17.3408 113.9 16.1627C112.689 14.9518 111.2 14.3464 109.433 14.3464C107.665 14.3464 106.16 14.9518 104.916 16.1627C103.706 17.3408 103.1 18.7807 103.1 20.4825C103.1 22.1842 103.706 23.6405 104.916 24.8513C106.16 26.0295 107.665 26.6185 109.433 26.6185Z" fill="#212C34"/>
<path d="M132.937 11.3029C134.246 9.14306 136.422 8.1122 139.465 8.21038V15.3773C137.436 15.3773 135.866 15.9173 134.753 16.9972C133.673 18.0444 133.133 19.5498 133.133 21.5133V32.3619H126.457V8.60309H132.937V11.3029Z" fill="#212C34"/>
<path d="M154.152 33C151.829 33 149.685 32.4437 147.721 31.331C145.758 30.1856 144.203 28.6639 143.058 26.7658C141.913 24.835 141.34 22.7405 141.34 20.4825C141.34 18.2244 141.913 16.1463 143.058 14.2482C144.203 12.3174 145.758 10.7957 147.721 9.68303C149.685 8.53764 151.829 7.96494 154.152 7.96494C156.476 7.96494 158.619 8.53764 160.583 9.68303C162.546 10.7957 164.101 12.3174 165.246 14.2482C166.391 16.1463 166.964 18.2244 166.964 20.4825C166.964 22.7405 166.391 24.835 165.246 26.7658C164.101 28.6639 162.546 30.1856 160.583 31.331C158.619 32.4437 156.476 33 154.152 33ZM154.152 26.7167C155.886 26.7167 157.343 26.1276 158.521 24.9495C159.699 23.7387 160.288 22.2497 160.288 20.4825C160.288 18.7153 159.699 17.2426 158.521 16.0645C157.343 14.8537 155.886 14.2482 154.152 14.2482C152.418 14.2482 150.961 14.8537 149.783 16.0645C148.605 17.2426 148.016 18.7153 148.016 20.4825C148.016 22.2497 148.605 23.7387 149.783 24.9495C150.961 26.1276 152.418 26.7167 154.152 26.7167Z" fill="#212C34"/>
</svg>
