<svg width="68" height="68" viewBox="0 0 68 68" fill="none" xmlns="http://www.w3.org/2000/svg">
<path fill-rule="evenodd" clip-rule="evenodd" d="M1.48704 6.68777C0.665405 8.58646 0.665405 11.0077 0.665405 15.8501L0.665406 33.9653L0.665407 52.0805C0.665407 56.9229 0.665405 59.3441 1.48704 61.2428C2.49616 63.5747 4.35595 65.4345 6.6879 66.4436C8.58658 67.2653 11.0078 67.2653 15.8502 67.2653H33.9654H52.0806C56.923 67.2653 59.3442 67.2653 61.2429 66.4436C63.5749 65.4345 65.4347 63.5747 66.4438 61.2428C67.2654 59.3441 67.2654 56.9229 67.2654 52.0805V33.9653V15.8501C67.2654 11.0077 67.2654 8.58645 66.4438 6.68777C65.4346 4.35583 63.5749 2.49603 61.2429 1.48691C59.3442 0.665283 56.923 0.665283 52.0806 0.665283L33.9654 0.665284L15.8502 0.665285C11.0078 0.665285 8.58657 0.665283 6.6879 1.48692C4.35595 2.49604 2.49616 4.35583 1.48704 6.68777ZM44.5973 29.3568C41.2737 29.3568 38.5788 26.662 38.5788 23.3377C38.5788 20.015 41.2737 17.3202 44.5973 17.3202C47.9209 17.3202 50.6158 20.015 50.6158 23.3377C50.6158 26.662 47.9209 29.3568 44.5973 29.3568ZM29.3471 23.3371C29.3471 26.6591 26.6534 29.3529 23.3306 29.3529C20.0095 29.3529 17.3158 26.6591 17.3158 23.3371C17.3158 20.015 20.0095 17.3212 23.3306 17.3212C26.6534 17.3212 29.3471 20.015 29.3471 23.3371ZM44.5979 38.5972C41.2736 38.5972 38.5787 41.2922 38.5787 44.6157C38.5787 47.9393 41.2736 50.6343 44.5979 50.6343C47.9205 50.6343 50.6154 47.9393 50.6154 44.6157C50.6154 41.2922 47.9205 38.5972 44.5979 38.5972ZM23.3311 38.6031C26.6532 38.6031 29.3469 41.2967 29.3469 44.6195C29.3469 47.9407 26.6532 50.6343 23.3311 50.6343C20.0091 50.6343 17.3154 47.9407 17.3154 44.6195C17.3154 41.2967 20.0091 38.6031 23.3311 38.6031Z" fill="white"/>
</svg>
