<svg width="53" height="55" viewBox="0 0 53 55" fill="none" xmlns="http://www.w3.org/2000/svg">
<path d="M28.0544 54.9208C22.9809 54.9208 18.3004 53.7008 14.0129 51.2608C9.72543 48.749 6.33118 45.4119 3.83015 41.2496C1.32913 37.0155 0.0786133 32.4225 0.0786133 27.4708C0.0786133 22.519 1.32913 17.9619 3.83015 13.7996C6.33118 9.56546 9.72543 6.2284 14.0129 3.7884C18.3004 1.27664 22.9809 0.020752 28.0544 0.020752C33.4137 0.020752 38.3086 1.24075 42.739 3.68075C47.2408 6.12075 50.4207 9.49369 52.2786 13.7996L39.5234 20.366C38.38 18.4284 36.808 16.8855 34.8072 15.7372C32.8063 14.589 30.5554 14.0149 28.0544 14.0149C24.1957 14.0149 20.9801 15.3066 18.4076 17.8902C15.9065 20.4737 14.656 23.6672 14.656 27.4708C14.656 31.2743 15.9065 34.4678 18.4076 37.0513C20.9801 39.6349 24.1957 40.9266 28.0544 40.9266C30.5554 40.9266 32.8063 40.3525 34.8072 39.2043C36.808 38.056 38.38 36.5131 39.5234 34.5755L52.2786 41.1419C50.4207 45.4478 47.2408 48.8208 42.739 51.2608C38.3086 53.7008 33.4137 54.9208 28.0544 54.9208Z" fill="white"/>
</svg>
