<svg width="10" height="14" viewBox="0 0 10 14" fill="none" xmlns="http://www.w3.org/2000/svg">
<path d="M9.40313 7.32168C9.09956 6.92914 8.64148 6.65951 8.0289 6.51297C8.80898 6.11506 9.1518 5.43972 9.05768 4.48684C9.02621 4.1413 8.93072 3.84183 8.77097 3.588C8.61112 3.3341 8.3954 3.12999 8.123 2.97558C7.85081 2.82098 7.55478 2.70329 7.2356 2.62215C6.91633 2.54102 6.54978 2.4821 6.1362 2.44549V0.466614H4.927V2.39051C4.71761 2.39051 4.39828 2.39574 3.96905 2.40622V0.466614H2.75968V2.44549C2.58687 2.45075 2.33301 2.45342 1.99798 2.45342L0.333252 2.44549V3.73336H1.20484C1.60271 3.73336 1.83568 3.91139 1.90372 4.26732V6.52108C1.95614 6.52108 1.99798 6.52378 2.02942 6.529H1.90372V9.68565C1.86189 9.95258 1.71009 10.0862 1.4483 10.0862H0.576775L0.333307 11.5232H1.90386C2.00334 11.5232 2.14722 11.5246 2.33576 11.5269C2.52419 11.5296 2.66548 11.5309 2.75974 11.5309V13.5333H3.9693V11.5544C4.18911 11.5598 4.50843 11.5623 4.92724 11.5623V13.5333H6.13647V11.5309C6.56584 11.51 6.94666 11.4709 7.27894 11.4131C7.61139 11.3554 7.9295 11.2652 8.23307 11.1421C8.53661 11.0191 8.79047 10.8659 8.99461 10.6827C9.19886 10.4996 9.36754 10.2665 9.50127 9.98379C9.63455 9.70105 9.71973 9.37386 9.75626 9.00208C9.82461 8.27459 9.70675 7.71439 9.40313 7.32168ZM3.99256 3.8195C4.02923 3.8195 4.13262 3.81818 4.30276 3.81554C4.47298 3.81284 4.61427 3.81026 4.72682 3.80762C4.83939 3.80503 4.99122 3.81158 5.18237 3.82728C5.37345 3.84299 5.5344 3.86397 5.66524 3.8901C5.79608 3.91623 5.94017 3.95944 6.09708 4.01965C6.25427 4.0798 6.37983 4.15313 6.47395 4.23949C6.56826 4.32585 6.64808 4.43584 6.7134 4.56935C6.77892 4.70283 6.81165 4.85594 6.81165 5.02867C6.81165 5.17527 6.78813 5.3088 6.74107 5.42927C6.69409 5.54966 6.62324 5.65046 6.52912 5.7316C6.43497 5.81276 6.33794 5.88351 6.23846 5.94366C6.13908 6.00381 6.01201 6.05227 5.85763 6.08888C5.70328 6.12554 5.56848 6.15434 5.45337 6.17524C5.33819 6.1962 5.19425 6.21064 5.02147 6.21845C4.84866 6.22626 4.71774 6.2316 4.62879 6.23419C4.53976 6.23677 4.41808 6.23677 4.26359 6.23419C4.10907 6.2316 4.01889 6.23023 3.99265 6.23023V3.81947H3.99256V3.8195ZM7.29473 9.16708C7.24487 9.28755 7.18084 9.39231 7.10237 9.48137C7.02376 9.57021 6.92032 9.64882 6.79212 9.71678C6.66395 9.78494 6.53949 9.83981 6.41919 9.8817C6.29872 9.92375 6.15339 9.96019 5.98341 9.99171C5.81305 10.0232 5.66395 10.0453 5.53556 10.0584C5.40736 10.0716 5.2543 10.082 5.07623 10.0899C4.89831 10.0976 4.75949 10.1016 4.66007 10.1016C4.56058 10.1016 4.43492 10.1002 4.28309 10.0976C4.13119 10.0952 4.03443 10.0938 3.99251 10.0938V7.43953C4.03434 7.43953 4.15869 7.43698 4.36552 7.43164C4.57238 7.42636 4.74112 7.42391 4.87201 7.42391C5.00288 7.42391 5.18356 7.43164 5.41399 7.44746C5.6442 7.46305 5.83791 7.48651 5.9951 7.51792C6.15209 7.54939 6.32342 7.59774 6.5094 7.66325C6.69519 7.72866 6.84578 7.80848 6.96099 7.90271C7.07618 7.9971 7.17297 8.11732 7.25147 8.26395C7.33016 8.41049 7.36941 8.57805 7.36941 8.76656C7.36938 8.9133 7.34454 9.04658 7.29473 9.16708Z" fill="#FF8A00"/>
</svg>
