<svg width="14" height="14" viewBox="0 0 14 14" fill="none" xmlns="http://www.w3.org/2000/svg">
<path fill-rule="evenodd" clip-rule="evenodd" d="M0.466675 3.46665C0.466675 1.80979 1.80982 0.466644 3.46667 0.466644H10.5333C12.1902 0.466644 13.5333 1.80979 13.5333 3.46664V10.5333C13.5333 12.1902 12.1902 13.5333 10.5333 13.5333H3.46668C1.80982 13.5333 0.466675 12.1902 0.466675 10.5333V3.46665ZM6.0667 4.51107C6.0667 5.37018 5.37026 6.06663 4.51115 6.06663C3.65204 6.06663 2.95559 5.37018 2.95559 4.51107C2.95559 3.65196 3.65204 2.95552 4.51115 2.95552C5.37026 2.95552 6.0667 3.65196 6.0667 4.51107ZM4.51115 11.0444C5.37026 11.0444 6.0667 10.3479 6.0667 9.48882C6.0667 8.62971 5.37026 7.93326 4.51115 7.93326C3.65204 7.93326 2.95559 8.62971 2.95559 9.48882C2.95559 10.3479 3.65204 11.0444 4.51115 11.0444ZM11.0444 4.51107C11.0444 5.37018 10.348 6.06663 9.48885 6.06663C8.62974 6.06663 7.9333 5.37018 7.9333 4.51107C7.9333 3.65196 8.62974 2.95552 9.48885 2.95552C10.348 2.95552 11.0444 3.65196 11.0444 4.51107ZM9.48885 11.0444C10.348 11.0444 11.0444 10.3479 11.0444 9.48882C11.0444 8.62971 10.348 7.93326 9.48885 7.93326C8.62974 7.93326 7.9333 8.62971 7.9333 9.48882C7.9333 10.3479 8.62974 11.0444 9.48885 11.0444Z" fill="#1313F0"/>
</svg>
